<svg xmlns="http://www.w3.org/2000/svg" width="25.624" height="26.28" viewBox="0 0 25.624 26.28">
  <metadata><?xpacket begin="﻿" id="W5M0MpCehiHzreSzNTczkc9d"?>
<x:xmpmeta xmlns:x="adobe:ns:meta/" x:xmptk="Adobe XMP Core 5.6-c138 79.159824, 2016/09/14-01:09:01        ">
   <rdf:RDF xmlns:rdf="http://www.w3.org/1999/02/22-rdf-syntax-ns#">
      <rdf:Description rdf:about=""/>
   </rdf:RDF>
</x:xmpmeta>
                                                                                                    
                                                                                                    
                                                                                                    
                                                                                                    
                                                                                                    
                                                                                                    
                                                                                                    
                                                                                                    
                                                                                                    
                                                                                                    
                                                                                                    
                                                                                                    
                                                                                                    
                                                                                                    
                                                                                                    
                                                                                                    
                                                                                                    
                                                                                                    
                                                                                                    
                                                                                                    
                           
<?xpacket end="w"?></metadata>
<defs>
    <style>
      .cls-1 {
        fill: #ffec00;
        fill-rule: evenodd;
      }
    </style>
  </defs>
  <path id="тел" class="cls-1" d="M481.888,3239.71a0.935,0.935,0,0,1-.936-0.93,9.918,9.918,0,0,0-9.934-9.9,0.93,0.93,0,1,1,0-1.86,11.776,11.776,0,0,1,11.805,11.76A0.935,0.935,0,0,1,481.888,3239.71Zm-6.37-.93a4.5,4.5,0,0,0-4.5-4.48,0.935,0.935,0,1,1,0-1.87,6.368,6.368,0,0,1,6.37,6.35A0.935,0.935,0,0,1,475.518,3238.78Zm-10.031.8a0.933,0.933,0,1,1-1.055-1.54,0.986,0.986,0,0,0,.683-0.85,12.038,12.038,0,0,0-3.164-4.3,1,1,0,0,0-.681.01,3.255,3.255,0,0,0-2.018,1.6,2.991,2.991,0,0,0,.081,2.4,26.284,26.284,0,0,0,5.636,8.62c0,0.01,0,.01,0,0.01a26.43,26.43,0,0,0,8.672,5.62,2.98,2.98,0,0,0,2.4.08,3.2,3.2,0,0,0,1.6-2.01,0.955,0.955,0,0,0,.008-0.68,12.074,12.074,0,0,0-4.317-3.15,1.009,1.009,0,0,0-.851.68,0.934,0.934,0,1,1-1.544-1.05,2.827,2.827,0,0,1,2.5-1.49c1.5,0.08,5.455,2.98,5.968,4.37a2.813,2.813,0,0,1,.009,1.92,5.033,5.033,0,0,1-2.6,3.11,4.254,4.254,0,0,1-1.8.38,5.543,5.543,0,0,1-2.089-.43,28.263,28.263,0,0,1-9.27-6.02c-0.007,0-.013-0.01-0.02-0.01a28.268,28.268,0,0,1-6.048-9.25,4.8,4.8,0,0,1-.049-3.88,5.019,5.019,0,0,1,3.123-2.58,2.847,2.847,0,0,1,1.932.01c1.389,0.51,4.3,4.45,4.377,5.94A2.789,2.789,0,0,1,465.487,3239.58Z" transform="translate(-457.188 -3227.03)"/>
</svg>
