<svg xmlns="http://www.w3.org/2000/svg" width="30" height="26.59" viewBox="0 0 30 26.59">
  <metadata><?xpacket begin="﻿" id="W5M0MpCehiHzreSzNTczkc9d"?>
<x:xmpmeta xmlns:x="adobe:ns:meta/" x:xmptk="Adobe XMP Core 5.6-c138 79.159824, 2016/09/14-01:09:01        ">
   <rdf:RDF xmlns:rdf="http://www.w3.org/1999/02/22-rdf-syntax-ns#">
      <rdf:Description rdf:about=""/>
   </rdf:RDF>
</x:xmpmeta>
                                                                                                    
                                                                                                    
                                                                                                    
                                                                                                    
                                                                                                    
                                                                                                    
                                                                                                    
                                                                                                    
                                                                                                    
                                                                                                    
                                                                                                    
                                                                                                    
                                                                                                    
                                                                                                    
                                                                                                    
                                                                                                    
                                                                                                    
                                                                                                    
                                                                                                    
                                                                                                    
                           
<?xpacket end="w"?></metadata>
<defs>
    <style>
      .cls-1 {
        fill: #ffec00;
        fill-rule: evenodd;
      }
    </style>
  </defs>
  <path id="телега" class="cls-1" d="M484.972,3285.36l-4.889,23.8a1.377,1.377,0,0,1-.853,1.02,1.25,1.25,0,0,1-.5.1,1.346,1.346,0,0,1-.81-0.27l-6.673-4.9a0.506,0.506,0,0,0-.617.01l-3.7,3.06a1.354,1.354,0,0,1-1.269.25,1.381,1.381,0,0,1-.92-0.92l-2.482-8.08-6.363-2.4a1.409,1.409,0,0,1-.014-2.62l27.24-10.63a1.351,1.351,0,0,1,1.388.23A1.417,1.417,0,0,1,484.972,3285.36Zm-1.232-.42a0.161,0.161,0,0,0-.185-0.03h0l-27.239,10.63a0.181,0.181,0,0,0-.119.18,0.171,0.171,0,0,0,.121.17l6.636,2.51a0.591,0.591,0,0,1,.362.39l2.569,8.36a0.178,0.178,0,0,0,.123.12,0.188,0.188,0,0,0,.169-0.03l3.7-3.06a1.719,1.719,0,0,1,1.075-.38,1.682,1.682,0,0,1,1,.33l6.673,4.9a0.166,0.166,0,0,0,.175.02,0.175,0.175,0,0,0,.114-0.13l4.888-23.8A0.169,0.169,0,0,0,483.74,3284.94Zm-5.79,22.2a0.557,0.557,0,0,1-.128-0.01,0.609,0.609,0,0,1-.457-0.72l1.375-6.41a0.593,0.593,0,0,1,.71-0.46,0.6,0.6,0,0,1,.458.72l-1.375,6.41A0.6,0.6,0,0,1,477.95,3307.14Zm1.754-8.78a0.607,0.607,0,0,1-.457-0.72l0.091-.43a0.6,0.6,0,1,1,1.167.26l-0.09.42a0.6,0.6,0,0,1-.584.48A0.549,0.549,0,0,1,479.7,3298.36Zm-11.331,1.55a1.544,1.544,0,0,0-.469.92l-0.347,2.6a0.909,0.909,0,0,1-.842.8h-0.069a0.913,0.913,0,0,1-.879-0.67l-1.334-4.75a1.878,1.878,0,0,1,.8-2.09l12.338-7.69a0.8,0.8,0,0,1,1.074.2,0.827,0.827,0,0,1-.1,1.1Zm-2.509-2.16a0.651,0.651,0,0,0-.281.73l0.968,3.45,0.168-1.27a2.81,2.81,0,0,1,.839-1.64l7.345-6.9Z" transform="translate(-455 -3283.69)"/>
</svg>
